<svg width="50" height="50" viewBox="0 0 50 50" fill="none" xmlns="http://www.w3.org/2000/svg">
<path d="M7.42188 42.5781C7.42188 45.3906 9.6875 47.6562 12.5 47.6562H37.5C40.3125 47.6562 42.5781 45.3906 42.5781 42.5781V11.3281C42.5781 11.3281 42.5781 9.64844 42.5781 7.42188C42.5781 4.60938 40.3125 2.34375 37.5 2.34375C36.8359 2.34375 36.3281 2.85156 36.3281 3.51562V16.4844C36.3281 17.4219 35.2734 17.9688 34.4922 17.4609L30.6641 14.9219C30.625 14.8438 30.5469 14.8438 30.4688 14.8438C30.4297 14.8438 30.3125 14.8438 30.2344 14.9219L26.8359 17.3438C26.0547 17.8906 25 17.3438 25 16.4062V3.51562C25 2.85156 24.4922 2.34375 23.8281 2.34375H12.5C9.6875 2.34375 7.42188 4.60938 7.42188 7.42188V42.5781ZM33.6328 35.9375H16.4453C15.7812 35.9375 15.2734 35.4297 15.2734 34.7656C15.2734 34.1016 15.7812 33.5938 16.4453 33.5938H33.6328C34.2969 33.5938 34.8047 34.1016 34.8047 34.7656C34.8047 35.4297 34.2969 35.9375 33.6328 35.9375ZM16.3672 27.7344H33.5547C34.2188 27.7344 34.7266 28.2422 34.7266 28.9062C34.7266 29.5703 34.2188 30.0781 33.5547 30.0781H16.3672C15.7031 30.0781 15.1953 29.5703 15.1953 28.9062C15.1953 28.2422 15.7031 27.7344 16.3672 27.7344Z" fill="#307CFD"/>
</svg>
