<svg xmlns="http://www.w3.org/2000/svg"  viewBox="0 0 32 32" width="64px" height="64px"><path d="M8.383 3.889c.358-.092.695.199.629.563C8.557 6.945 7.92 11.301 7.92 16c0 4.7.637 9.057 1.092 11.55.066.363-.269.654-.627.564-1.041-.263-2.259-.796-2.565-2.443-1.19-6.42-1.19-12.92 0-19.33C6.123 4.696 7.334 4.157 8.383 3.889zM26.18 25.66c-.21 1.14-1.06 2.06-2.17 2.35-2.68.68-5.37 1.03-8.01 1.03-1.445 0-2.915-.103-4.38-.317-.211-.031-.38-.192-.422-.401C10.795 26.314 9.92 21.329 9.92 16c0-5.335.873-10.326 1.278-12.329.043-.211.214-.372.427-.402C15.756 2.693 19.878 2.93 24.01 3.99c1.11.29 1.96 1.21 2.17 2.34 0 .01 0 .01 0 .01C27.37 12.75 27.37 19.25 26.18 25.66zM22.587 11.562c.1-.543-.261-1.063-.805-1.162-1.589-.289-4.612-.421-6.749-.421-.553 0-1 .447-1 1s.447 1 1 1c2.115 0 4.99.134 6.392.388.061.012.12.017.18.017C22.079 12.384 22.5 12.046 22.587 11.562zM20 14.994c.011-.552-.428-1.009-.98-1.02-.506-.01-3.5-.01-4.006 0-.553.011-.991.468-.98 1.02.011.546.456.98 1 .98.006 0 .013 0 .02 0 .477-.01 3.451-.01 3.928 0 .007 0 .014 0 .02 0C19.544 15.975 19.989 15.54 20 14.994z"/></svg>