<svg xmlns="http://www.w3.org/2000/svg"  viewBox="0 0 80 80" width="150px" height="150px"><path d="M 40 14.015625 C 39.488281 14.015625 38.976563 14.109375 38.492188 14.296875 L 1.570313 28.703125 C 0.625 29.074219 0 29.988281 0 31 L 0 32 L 0.3125 32 C 0.574219 32.566406 0.964844 33.058594 1.570313 33.296875 L 6 35.023438 L 6 60.269531 C 5.382813 60.628906 5 61.285156 5 62 C 5 62.175781 5.023438 62.351563 5.070313 62.519531 C 3.84375 63.207031 3 64.503906 3 66 C 3 66.714844 3.238281 67.371094 3.535156 68.152344 C 3.832031 68.929688 4.21875 69.769531 4.601563 70.558594 C 5.367188 72.132813 6.128906 73.488281 6.128906 73.488281 L 7 75.042969 L 7.871094 73.488281 C 7.871094 73.488281 8.632813 72.132813 9.398438 70.558594 C 9.78125 69.769531 10.167969 68.929688 10.464844 68.152344 C 10.761719 67.371094 11 66.714844 11 66 C 11 64.503906 10.15625 63.207031 8.929688 62.519531 C 8.976563 62.351563 9 62.175781 9 62 C 9 61.285156 8.617188 60.625 8 60.269531 L 8 35.804688 L 18 39.703125 L 18 50 C 18 50.628906 18.34375 51.164063 18.746094 51.539063 C 19.148438 51.914063 19.648438 52.203125 20.238281 52.46875 C 21.425781 53.003906 23.015625 53.441406 24.964844 53.8125 C 28.855469 54.550781 34.148438 55 40 55 C 45.851563 55 51.144531 54.550781 55.035156 53.8125 C 56.984375 53.441406 58.574219 53.003906 59.761719 52.46875 C 60.351563 52.203125 60.851563 51.914063 61.253906 51.539063 C 61.65625 51.164063 62 50.628906 62 50 L 62 39.703125 L 78.433594 33.296875 C 79.035156 33.058594 79.425781 32.566406 79.6875 32 L 80 32 L 80 31 C 80 29.988281 79.375 29.074219 78.433594 28.703125 L 41.507813 14.296875 C 41.023438 14.109375 40.511719 14.015625 40 14.015625 Z M 40 16.015625 C 40.265625 16.015625 40.53125 16.0625 40.78125 16.160156 L 77.703125 30.566406 C 77.886719 30.640625 78 30.804688 78 31 C 78 31.195313 77.886719 31.359375 77.703125 31.433594 L 62 37.558594 L 62 36.3125 C 62 35.09375 61.261719 33.984375 60.125 33.53125 C 57.3125 32.398438 50.148438 30 40 30 C 29.851563 30 22.6875 32.398438 19.875 33.527344 C 18.742188 33.984375 18 35.09375 18 36.3125 L 18 37.558594 L 2.296875 31.433594 C 2.113281 31.359375 2 31.195313 2 31 C 2 30.804688 2.113281 30.640625 2.296875 30.566406 L 39.21875 16.160156 C 39.46875 16.0625 39.734375 16.015625 40 16.015625 Z M 40 18 C 39.449219 18 39 18.449219 39 19 C 39 19.550781 39.449219 20 40 20 C 40.550781 20 41 19.550781 41 19 C 41 18.449219 40.550781 18 40 18 Z M 40 22 C 39.449219 22 39 22.449219 39 23 C 39 23.550781 39.449219 24 40 24 C 40.550781 24 41 23.550781 41 23 C 41 22.449219 40.550781 22 40 22 Z M 40 26 C 39.449219 26 39 26.449219 39 27 C 39 27.550781 39.449219 28 40 28 C 40.550781 28 41 27.550781 41 27 C 41 26.449219 40.550781 26 40 26 Z M 40 32 C 49.832031 32 56.746094 34.328125 59.378906 35.386719 C 59.757813 35.539063 60 35.894531 60 36.3125 L 60 47.65625 C 59.917969 47.617188 59.847656 47.570313 59.761719 47.53125 C 58.574219 46.996094 56.984375 46.558594 55.035156 46.1875 C 51.144531 45.449219 45.851563 45 40 45 C 34.148438 45 28.855469 45.449219 24.964844 46.1875 C 23.015625 46.558594 21.425781 46.996094 20.238281 47.53125 C 20.152344 47.570313 20.082031 47.617188 20 47.65625 L 20 36.3125 C 20 35.890625 20.238281 35.539063 20.621094 35.386719 C 23.253906 34.328125 30.167969 32 40 32 Z M 40 47 C 45.746094 47 50.953125 47.449219 54.660156 48.15625 C 56.515625 48.507813 58 48.933594 58.9375 49.355469 C 59.410156 49.566406 59.738281 49.78125 59.890625 49.925781 C 59.941406 49.96875 59.945313 49.980469 59.960938 50 C 59.945313 50.019531 59.941406 50.03125 59.890625 50.074219 C 59.738281 50.21875 59.410156 50.433594 58.9375 50.644531 C 58 51.066406 56.515625 51.492188 54.660156 51.84375 C 50.953125 52.550781 45.746094 53 40 53 C 34.253906 53 29.046875 52.550781 25.339844 51.84375 C 23.484375 51.492188 22 51.066406 21.0625 50.644531 C 20.589844 50.433594 20.261719 50.21875 20.109375 50.074219 C 20.058594 50.03125 20.054688 50.019531 20.039063 50 C 20.054688 49.980469 20.058594 49.96875 20.109375 49.925781 C 20.261719 49.78125 20.589844 49.566406 21.0625 49.355469 C 22 48.933594 23.484375 48.507813 25.339844 48.15625 C 29.046875 47.449219 34.253906 47 40 47 Z M 7 64 C 8.117188 64 9 64.882813 9 66 C 9 66.113281 8.863281 66.746094 8.597656 67.4375 C 8.332031 68.125 7.96875 68.929688 7.601563 69.683594 C 7.300781 70.300781 7.25 70.363281 7 70.839844 C 6.75 70.363281 6.699219 70.300781 6.398438 69.683594 C 6.03125 68.929688 5.667969 68.125 5.402344 67.4375 C 5.136719 66.746094 5 66.113281 5 66 C 5 64.882813 5.882813 64 7 64 Z"/></svg>