<svg width="220" height="100" viewBox="0 0 220 100" fill="none" xmlns="http://www.w3.org/2000/svg">
<path d="M22.9167 50H18.7501C17.6001 50 16.6667 50.9333 16.6667 52.0833V77.0833C16.6667 78.2333 17.6001 79.1667 18.7501 79.1667H22.9167C30.9584 79.1667 37.5001 72.625 37.5001 64.5833C37.5001 56.5417 30.9584 50 22.9167 50ZM22.9167 75H20.8334V54.1667H22.9167C28.6626 54.1667 33.3334 58.8375 33.3334 64.5833C33.3334 70.3292 28.6626 75 22.9167 75Z" fill="#5B5B5B"/>
<path d="M52.0834 50C46.3376 50 41.6667 54.6708 41.6667 60.4167V68.75C41.6667 74.4958 46.3376 79.1667 52.0834 79.1667C57.8292 79.1667 62.5001 74.4958 62.5001 68.75V60.4167C62.5001 54.6708 57.8292 50 52.0834 50ZM58.3334 68.75C58.3334 72.1958 55.5292 75 52.0834 75C48.6376 75 45.8334 72.1958 45.8334 68.75V60.4167C45.8334 56.9708 48.6376 54.1667 52.0834 54.1667C55.5292 54.1667 58.3334 56.9708 58.3334 60.4167V68.75Z" fill="#5B5B5B"/>
<path d="M77.0834 50C71.3376 50 66.6667 54.6708 66.6667 60.4167V68.75C66.6667 74.4958 71.3376 79.1667 77.0834 79.1667H85.4167C86.5667 79.1667 87.5001 78.2333 87.5001 77.0833C87.5001 75.9333 86.5667 75 85.4167 75H77.0834C73.6376 75 70.8334 72.1958 70.8334 68.75V60.4167C70.8334 56.9708 73.6376 54.1667 77.0834 54.1667H85.4167C86.5667 54.1667 87.5001 53.2333 87.5001 52.0833C87.5001 50.9333 86.5667 50 85.4167 50H77.0834Z" fill="#5B5B5B"/>
<path d="M93.7499 41.6667H87.4999V6.24999C87.4999 5.09999 86.5666 4.16666 85.4166 4.16666H39.5833C39.4916 4.16666 39.4083 4.20832 39.3166 4.22082C39.2249 4.23332 39.1499 4.24999 39.0582 4.27082C38.7082 4.36249 38.3708 4.51666 38.1083 4.77499L17.2749 25.6083C17.0166 25.8708 16.8666 26.2042 16.7708 26.5583C16.7499 26.6458 16.7333 26.7208 16.7208 26.8125C16.7083 26.9042 16.6666 26.9875 16.6666 27.0833V41.6667H10.4166C9.26659 41.6667 8.33325 42.6 8.33325 43.75V85.4167C8.33325 86.5667 9.26659 87.5 10.4166 87.5H16.6666V97.9167C16.6666 99.0667 17.5999 100 18.7499 100H85.4166C86.5666 100 87.4999 99.0667 87.4999 97.9167V87.5H93.7499C94.8999 87.5 95.8332 86.5667 95.8332 85.4167V43.75C95.8332 42.6 94.8999 41.6667 93.7499 41.6667ZM37.4999 11.2792V25H23.7791L37.4999 11.2792ZM20.8333 29.1667H39.5833C40.7333 29.1667 41.6666 28.2333 41.6666 27.0833V8.33332H83.3332V41.6667H20.8333V29.1667ZM83.3332 95.8333H20.8333V87.5H83.3332V95.8333ZM91.6666 83.3333H12.4999V45.8333H91.6666V83.3333Z" fill="#5B5B5B"/>
<path d="M112.12 79.4C110.147 79.4 108.453 79.08 107.04 78.44C105.627 77.7733 104.533 76.84 103.76 75.64C102.987 74.4133 102.6 72.96 102.6 71.28H106.88C106.88 72.6133 107.347 73.6667 108.28 74.44C109.213 75.1867 110.507 75.56 112.16 75.56C113.707 75.56 114.92 75.1867 115.8 74.44C116.68 73.6933 117.12 72.6667 117.12 71.36C117.12 70.2667 116.813 69.32 116.2 68.52C115.613 67.72 114.76 67.1733 113.64 66.88L109.96 65.8C107.827 65.1867 106.173 64.1467 105 62.68C103.853 61.1867 103.28 59.4133 103.28 57.36C103.28 55.76 103.64 54.36 104.36 53.16C105.08 51.96 106.107 51.0267 107.44 50.36C108.773 49.6933 110.347 49.36 112.16 49.36C114.827 49.36 116.96 50.08 118.56 51.52C120.187 52.96 121.013 54.8933 121.04 57.32H116.72C116.72 56.04 116.307 55.04 115.48 54.32C114.68 53.5733 113.547 53.2 112.08 53.2C110.667 53.2 109.56 53.5467 108.76 54.24C107.96 54.9067 107.56 55.8533 107.56 57.08C107.56 58.1733 107.853 59.12 108.44 59.92C109.053 60.72 109.92 61.28 111.04 61.6L114.76 62.72C116.893 63.3067 118.533 64.3467 119.68 65.84C120.827 67.3333 121.4 69.12 121.4 71.2C121.4 72.8267 121.013 74.2667 120.24 75.52C119.467 76.7467 118.387 77.7067 117 78.4C115.613 79.0667 113.987 79.4 112.12 79.4ZM133.824 79V53.76H126.024V49.76H145.944V53.76H138.144V79H133.824ZM159.969 79.4C158.155 79.4 156.582 79.0667 155.249 78.4C153.942 77.7067 152.929 76.72 152.209 75.44C151.515 74.1333 151.169 72.6133 151.169 70.88V57.92C151.169 56.16 151.515 54.64 152.209 53.36C152.929 52.08 153.942 51.1067 155.249 50.44C156.582 49.7467 158.155 49.4 159.969 49.4C161.782 49.4 163.342 49.7467 164.649 50.44C165.982 51.1067 166.995 52.08 167.689 53.36C168.409 54.64 168.769 56.1467 168.769 57.88V70.88C168.769 72.6133 168.409 74.1333 167.689 75.44C166.995 76.72 165.982 77.7067 164.649 78.4C163.342 79.0667 161.782 79.4 159.969 79.4ZM159.969 75.56C161.435 75.56 162.542 75.16 163.289 74.36C164.062 73.5333 164.449 72.3733 164.449 70.88V57.92C164.449 56.4 164.062 55.24 163.289 54.44C162.542 53.64 161.435 53.24 159.969 53.24C158.529 53.24 157.422 53.64 156.649 54.44C155.875 55.24 155.489 56.4 155.489 57.92V70.88C155.489 72.3733 155.875 73.5333 156.649 74.36C157.422 75.16 158.529 75.56 159.969 75.56ZM175.313 79V49.8H184.473C186.313 49.8 187.913 50.16 189.273 50.88C190.633 51.5733 191.686 52.56 192.433 53.84C193.206 55.12 193.593 56.6267 193.593 58.36C193.593 60.3067 193.086 62 192.073 63.44C191.086 64.8533 189.74 65.8533 188.033 66.44L193.993 79H189.073L183.753 67H179.633V79H175.313ZM179.633 63.2H184.473C185.913 63.2 187.06 62.7733 187.913 61.92C188.766 61.04 189.193 59.88 189.193 58.44C189.193 56.9467 188.766 55.7733 187.913 54.92C187.06 54.0667 185.913 53.64 184.473 53.64H179.633V63.2ZM199.698 79V49.8H216.858V53.64H203.938V61.92H215.458V65.72H203.938V75.16H216.858V79H199.698Z" fill="#307CFD"/>
</svg>
