<svg xmlns="http://www.w3.org/2000/svg"  viewBox="0 0 24 24" width="128px" height="128px"><path fill="#5B5B5B" d="M5.5,12h-1C4.224,12,4,12.224,4,12.5v6C4,18.776,4.224,19,4.5,19h1C7.43,19,9,17.43,9,15.5S7.43,12,5.5,12z M5.5,18H5v-5h0.5C6.879,13,8,14.121,8,15.5S6.879,18,5.5,18z"/><path fill="#5B5B5B" d="M12.5,12c-1.379,0-2.5,1.121-2.5,2.5v2c0,1.379,1.121,2.5,2.5,2.5s2.5-1.121,2.5-2.5v-2	C15,13.121,13.879,12,12.5,12z M14,16.5c0,0.827-0.673,1.5-1.5,1.5S11,17.327,11,16.5v-2c0-0.827,0.673-1.5,1.5-1.5	s1.5,0.673,1.5,1.5V16.5z"/><path fill="#5B5B5B" d="M18.5,12c-1.379,0-2.5,1.121-2.5,2.5v2c0,1.379,1.121,2.5,2.5,2.5h2c0.276,0,0.5-0.224,0.5-0.5	S20.776,18,20.5,18h-2c-0.827,0-1.5-0.673-1.5-1.5v-2c0-0.827,0.673-1.5,1.5-1.5h2c0.276,0,0.5-0.224,0.5-0.5S20.776,12,20.5,12	H18.5z"/><path fill="#5B5B5B" d="M22.5,10H21V1.5C21,1.224,20.776,1,20.5,1h-11C9.478,1,9.458,1.01,9.436,1.013	c-0.022,0.003-0.04,0.007-0.062,0.012C9.29,1.047,9.209,1.084,9.146,1.146l-5,5C4.084,6.209,4.048,6.289,4.025,6.374	C4.02,6.395,4.016,6.413,4.013,6.435C4.01,6.457,4,6.477,4,6.5V10H2.5C2.224,10,2,10.224,2,10.5v10C2,20.776,2.224,21,2.5,21H4v2.5	C4,23.776,4.224,24,4.5,24h16c0.276,0,0.5-0.224,0.5-0.5V21h1.5c0.276,0,0.5-0.224,0.5-0.5v-10C23,10.224,22.776,10,22.5,10z M9,2.707V6H5.707L9,2.707z M5,7h4.5C9.776,7,10,6.776,10,6.5V2h10v8H5V7z M20,23H5v-2h15V23z M22,20H3v-9h19V20z"/></svg>